<svg width="11px" height="10px" viewBox="0 0 11 10" version="1.1" xml:space="preserve" style="fill-rule:evenodd;clip-rule:evenodd;stroke-linejoin:round;stroke-miterlimit:2;"><g id="svg-trolley">
            <path d="M10.254,1.637c-0.073,-0.087 -0.18,-0.137 -0.293,-0.137l-0.868,0c-0.212,0 -0.383,0.172 -0.383,0.383c0,0.212 0.171,0.384 0.383,0.384l0.412,0l-0.674,3.849l-4.674,0l-0.799,-3.844l0.568,0c0.211,0 0.383,-0.172 0.383,-0.383c0,-0.212 -0.172,-0.384 -0.383,-0.384l-0.726,0l-0.249,-1.199c-0.037,-0.178 -0.194,-0.306 -0.375,-0.306l-2.193,0c-0.212,0 -0.383,0.172 -0.383,0.383c0,0.212 0.171,0.383 0.383,0.383l1.881,0l1.206,5.811c0.037,0.178 0.193,0.305 0.375,0.305l5.308,0c0.186,0 0.345,-0.134 0.377,-0.316l0.808,-4.617c0.02,-0.111 -0.011,-0.225 -0.084,-0.312" style="fill:currentColor;fill-rule:nonzero;"></path>
            <path d="M4.768,7.422c-0.446,0 -0.808,0.362 -0.808,0.808c0,0.446 0.362,0.808 0.808,0.808c0.446,0 0.808,-0.362 0.808,-0.808c0,-0.446 -0.362,-0.808 -0.808,-0.808" style="fill:currentColor;fill-rule:nonzero;"></path>
            <path d="M8.23,7.422c-0.446,0 -0.808,0.362 -0.808,0.808c0,0.446 0.362,0.808 0.808,0.808c0.446,0 0.808,-0.362 0.808,-0.808c0,-0.446 -0.362,-0.808 -0.808,-0.808" style="fill:currentColor;fill-rule:nonzero;"></path>
            <path d="M5.154,2.279l0.906,-0l0,0.906c0,0.212 0.172,0.384 0.383,0.384c0.211,-0 0.383,-0.172 0.383,-0.384l0,-0.906l0.906,-0c0.212,-0 0.383,-0.171 0.383,-0.383c0,-0.211 -0.171,-0.383 -0.383,-0.383l-0.906,-0l0,-0.906c0,-0.211 -0.172,-0.383 -0.383,-0.383c-0.211,-0 -0.383,0.172 -0.383,0.383l0,0.906l-0.906,-0c-0.211,-0 -0.383,0.172 -0.383,0.383c0,0.212 0.172,0.383 0.383,0.383" style="fill:currentColor;fill-rule:nonzero;"></path>
        </g></svg>