<svg width="85px" height="18px" viewBox="0 0 85 18" version="1.1" xmlns:xlink="http://www.w3.org/1999/xlink" xmlns="http://www.w3.org/2000/svg">
  <defs>
    <path d="M0 0L20.041 0L20.041 17.2413L0 17.2413L0 0Z" transform="translate(0.1434 0.06635769)" id="path_1"></path>
    <path d="M0 0L14.9593 0L14.9593 12.3807L0 12.3807L0 0Z" transform="translate(0.03256667 0.3091154)" id="path_2"></path>
    <path d="M0 17.3447L84.992 17.3447L84.992 0L0 0L0 17.3447Z" transform="translate(0 0.3461539)" id="path_3"></path>
    <clipPath id="logo_mask_1">
      <use xlink:href="#path_1"></use>
    </clipPath>
    <clipPath id="logo_mask_2">
      <use xlink:href="#path_2"></use>
    </clipPath>
    <clipPath id="logo_mask_3">
      <use xlink:href="#path_3"></use>
    </clipPath>
  </defs>
  <g id="Group-13">
    <path d="M19.163 5.16635C19.163 6.20238 18.9763 7.06327 18.6083 7.72581C18.233 8.39908 17.78 8.93423 17.2607 9.31812C16.735 9.70788 16.186 9.97996 15.6287 10.1278C15.0587 10.2797 14.582 10.3569 14.211 10.3569L3.37667 10.3569L3.37667 16.1017L0 16.1017L0 0L14.211 0C14.6103 0 15.107 0.0768462 15.6877 0.228808C16.2533 0.378 16.8027 0.646962 17.3193 1.02704C17.8297 1.40262 18.27 1.92877 18.629 2.59062C18.9833 3.24762 19.163 4.11335 19.163 5.16635ZM14.8557 7.00615C15.1027 6.83515 15.319 6.6015 15.499 6.31246C15.6897 6.00577 15.7863 5.62015 15.7863 5.16635C15.7863 4.70319 15.7003 4.31481 15.5307 4.01123C15.3653 3.71492 15.1567 3.47988 14.9103 3.31235C14.6747 3.15277 14.43 3.04304 14.1823 2.98592C13.9473 2.93123 13.7597 2.90527 13.6093 2.90527L3.37667 2.90527L3.37667 7.45165L13.6093 7.45165C13.7343 7.45165 13.9027 7.42119 14.1397 7.35473C14.375 7.28896 14.6163 7.17162 14.8557 7.00615Z" transform="translate(0.0001 0.9545538)" id="Fill-1" fill="#2C241D" fill-rule="evenodd" stroke="none"></path>
    <g id="Group-5" transform="translate(22 0.3831923)">
      <path d="M0 0L20.041 0L20.041 17.2413L0 17.2413L0 0Z" transform="translate(0.1434 0.06635769)" id="Clip-4" fill="none" stroke="none"></path>
      <g clip-path="url(#logo_mask_1)">
        <path d="M18.499 13.328C18.1637 13.5021 17.8277 13.6682 17.4927 13.8264L16.9853 14.0656L19.9347 16.6067L15.928 16.6067L14.2707 15.2598L14.0867 15.3325C13.443 15.5873 12.788 15.8303 12.121 16.0602C11.4617 16.2893 10.793 16.4928 10.1323 16.6663C9.47733 16.838 8.82567 16.9771 8.19667 17.0796C6.35867 17.379 4.81633 17.2333 3.59767 16.884C2.801 16.6562 2.12733 16.3326 1.595 15.921C1.07167 15.517 0.670667 15.0272 0.403333 14.4644C0.135667 13.9015 0 13.2636 0 12.5702C0 11.9783 0.120667 11.456 0.359667 11.0174C0.606667 10.5629 0.947667 10.1534 1.37367 9.79996C1.812 9.43581 2.33333 9.10765 2.923 8.82485C3.522 8.5365 4.162 8.27896 4.826 8.05985L5.37233 7.8795L4.967 7.45858C4.54267 7.01896 4.176 6.52258 3.87667 5.98327C3.59267 5.47269 3.44867 4.91469 3.44867 4.32519C3.44867 3.81808 3.55933 3.30058 3.77733 2.78862C3.993 2.28462 4.35567 1.82146 4.85567 1.41265C5.36367 0.995539 6.045 0.6525 6.88 0.393923C7.72433 0.132231 8.773 0 9.998 0C11.1613 0 12.175 0.132231 13.0103 0.393231C13.84 0.6525 14.531 0.997615 15.065 1.41681C15.5877 1.82769 15.9767 2.30781 16.2217 2.84538C16.4687 3.38677 16.5933 3.94962 16.5933 4.51731C16.5933 5.07323 16.466 5.53708 16.203 5.93585C15.9293 6.35158 15.5607 6.7185 15.107 7.02762C14.6393 7.34642 14.0833 7.62923 13.4547 7.86738C12.8103 8.11142 12.1313 8.33054 11.4377 8.5185L10.782 8.69608L14.525 11.9354L16.116 11.1922C16.5183 10.999 16.9633 10.782 17.4507 10.5407C17.8357 10.3507 18.2087 10.1607 18.5697 9.96958L20.041 12.5228C19.8463 12.628 19.644 12.7371 19.4337 12.8489C19.1053 13.0233 18.7957 13.1819 18.5057 13.3245L18.499 13.328ZM7.57267 3.33035L7.57267 3.32965C8.081 3.01223 8.874 2.85715 9.998 2.85715C11.0527 2.85715 11.8287 3.00081 12.37 3.29573C12.978 3.62596 13.2863 4.03754 13.2863 4.51731C13.2863 4.86173 13.1437 5.17362 12.8617 5.44431C12.6253 5.67208 12.3033 5.877 11.905 6.0525C11.5277 6.21935 11.0793 6.37477 10.5733 6.51427C10.0777 6.65135 9.54267 6.79223 8.96933 6.93623L8.80167 6.97881L7.32467 5.73646C6.92733 5.36539 6.73267 4.97562 6.73267 4.56542C6.73267 4.09535 7.01533 3.67962 7.57267 3.33035ZM8.62 14.0763C9.41133 13.8832 10.241 13.6288 11.0857 13.3203L11.681 13.1033L7.322 9.50435L7.152 9.55246C6.63567 9.69888 6.155 9.84877 5.70933 10.0028C5.246 10.1641 4.84233 10.3486 4.50967 10.5508C4.15667 10.765 3.87 11.0181 3.658 11.3023C3.42533 11.6148 3.307 11.9762 3.307 12.3778C3.307 13.0362 3.621 13.5651 4.21567 13.9085C4.75967 14.2217 5.48467 14.3737 6.433 14.3737C7.07367 14.3737 7.809 14.274 8.61967 14.0763L8.62 14.0763Z" transform="translate(0.1434 0.06635769)" id="Fill-3" fill="#2C241D" fill-rule="evenodd" stroke="none"></path>
      </g>
    </g>
    <path d="M16.6463 12.1628C16.2227 12.5688 15.713 12.9278 15.131 13.2303C14.5533 13.5305 13.888 13.7707 13.1543 13.9445C12.4243 14.1179 11.6197 14.2055 10.7623 14.2055C9.58767 14.2055 8.54267 14.0542 7.657 13.7558C6.76267 13.4547 6.008 13.0445 5.414 12.537C4.81233 12.0243 4.352 11.42 4.046 10.7405C3.74033 10.0623 3.585 9.34373 3.585 8.60435C3.585 7.84835 3.74033 7.12177 4.04633 6.44365C4.35267 5.76312 4.813 5.15873 5.414 4.64608C6.00833 4.13827 6.76433 3.73258 7.65967 3.43904C8.548 3.14862 9.59133 3.0015 10.7623 3.0015C11.5687 3.0015 12.337 3.08077 13.0453 3.23758C13.7527 3.39542 14.3993 3.60969 14.9677 3.87485C15.543 4.14485 16.0467 4.47058 16.4637 4.84408C16.791 5.13762 17.0693 5.45054 17.2943 5.77973L20.3197 4.18846C19.961 3.67235 19.5283 3.18462 19.0283 2.73565C18.422 2.19046 17.707 1.70619 16.9043 1.29738C16.1017 0.888231 15.1903 0.565615 14.195 0.340269C13.1953 0.114577 12.095 0 10.9243 0C9.195 0 7.63133 0.236077 6.277 0.703038C4.92733 1.16723 3.77333 1.80069 2.846 2.58715C1.92567 3.36635 1.21333 4.28331 0.728333 5.31346C0.245 6.34015 0 7.4475 0 8.60435C0 9.7605 0.245 10.8675 0.728333 11.8942C1.213 12.923 1.92533 13.8406 2.846 14.6208C3.77333 15.407 4.92733 16.0404 6.277 16.505C7.63133 16.9716 9.195 17.2077 10.9243 17.2077C12.141 17.2077 13.2757 17.0855 14.2957 16.8442C15.3117 16.604 16.2423 16.2623 17.062 15.8289C17.8773 15.3976 18.5993 14.8863 19.207 14.3097C19.7127 13.8285 20.146 13.302 20.498 12.7405L17.4573 11.1517C17.25 11.5062 16.978 11.8447 16.6467 12.1628L16.6463 12.1628Z" transform="translate(45.5829 0.4014692)" id="Fill-6" fill="#2C241D" stroke="none"></path>
    <g id="Group-10" transform="translate(70 0.03703846)">
      <path d="M0 0L14.9593 0L14.9593 12.3807L0 12.3807L0 0Z" transform="translate(0.03256667 0.3091154)" id="Clip-9" fill="none" stroke="none"></path>
      <g clip-path="url(#logo_mask_2)">
        <path d="M12.9683 1.83912C13.6093 2.39954 14.107 3.06138 14.4477 3.80596C14.7873 4.55123 14.9593 5.35327 14.9593 6.19096C14.9593 7.02796 14.7873 7.83 14.448 8.57492C14.1077 9.31915 13.6097 9.98135 12.9683 10.5425C12.328 11.1036 11.5363 11.555 10.616 11.8845C9.696 12.214 8.64067 12.3809 7.48 12.3809C6.319 12.3809 5.26367 12.214 4.34333 11.8845C3.42367 11.5553 2.63233 11.1036 1.99133 10.5421C1.349 9.98031 0.851667 9.31846 0.511667 8.57492C0.172333 7.83035 0 7.02831 0 6.19096C0 5.35292 0.172333 4.55054 0.511667 3.80631C0.851667 3.06208 1.34933 2.39988 1.99133 1.83842C2.63267 1.27731 3.424 0.825923 4.34333 0.496385C5.26367 0.167192 6.319 0 7.48 0C8.64067 0 9.696 0.167192 10.616 0.496385C11.5363 0.826269 12.328 1.27765 12.9683 1.83912ZM10.8173 8.72238C11.1827 8.39146 11.4597 8.00342 11.6403 7.57004C11.8207 7.13631 11.912 6.67212 11.912 6.19096C11.912 5.70946 11.8207 5.24527 11.6403 4.81085C11.4603 4.3785 11.1833 3.99081 10.817 3.65815C10.4503 3.32585 9.98333 3.05931 9.43033 2.86615C8.875 2.67196 8.219 2.57331 7.48 2.57331C6.74033 2.57331 6.08433 2.67162 5.53 2.86581C4.97633 3.05931 4.509 3.32585 4.142 3.65885C3.776 3.99081 3.49933 4.3785 3.31933 4.81085C3.139 5.24423 3.04767 5.70808 3.04767 6.19096C3.04767 6.67315 3.139 7.137 3.31933 7.57004C3.49933 8.00273 3.776 8.39077 4.14233 8.72273C4.509 9.05538 4.97633 9.32192 5.52967 9.51508C6.086 9.70892 6.742 9.80723 7.48 9.80723C8.21733 9.80723 8.87367 9.70892 9.43033 9.51508C9.98333 9.32192 10.4503 9.05538 10.8173 8.72238Z" transform="translate(0.03256667 0.3089769)" id="Fill-8" fill="#2C241D" fill-rule="evenodd" stroke="none"></path>
      </g>
    </g>
    <path d="M0 17.3447L84.992 17.3447L84.992 0L0 0L0 17.3447Z" transform="translate(0 0.3461539)" id="Clip-12" fill="none" stroke="none"></path>
    <g clip-path="url(#logo_mask_3)">
      <path d="M0 2.80904L7.561 2.80904L7.561 0L0 0L0 2.80904Z" transform="translate(73.73167 14.25704)" id="Fill-11" fill="#2C241D" stroke="none"></path>
    </g>
  </g>
</svg>